<svg data-v-0dd9719b="" version="1.0" xmlns="http://www.w3.org/2000/svg" xmlns:xlink="http://www.w3.org/1999/xlink" width="100%" height="100%" viewBox="0 0 340.000000 250.000000" preserveAspectRatio="xMidYMid meet" color-interpolation-filters="sRGB" style="margin: auto;"> <rect data-v-0dd9719b="" x="0" y="0" width="100%" height="100%" fill="#fff" fill-opacity="1" class="background"></rect> <rect data-v-0dd9719b="" x="0" y="0" width="100%" height="100%" fill="url(#watermark)" fill-opacity="1" class="watermarklayer"></rect> <g data-v-0dd9719b="" fill="#333" class="icon-text-wrapper icon-svg-group iconsvg" transform="translate(80.80500030517578,78.02000045776367)"><g class="iconsvg-imagesvg" transform="translate(59.19499969482422,0)"><g><rect fill="#333" fill-opacity="0" stroke-width="2" x="0" y="0" width="60" height="60" class="image-rect"></rect> <svg x="0" y="0" width="60" height="60" filtersec="colorsb9501950790" class="image-svg-svg primary" style="overflow: visible;"><svg xmlns="http://www.w3.org/2000/svg" viewBox="-0.0018661689246073365 -9.536295806356065e-7 100 100"><path d="M29.89 56l37-.11 11.5-35.12 11.52 35.12h9.74A50 50 0 1 0 50 100c.88 0 1.75 0 2.62-.07l7.11-22.11z" fill="#d6473a"></path><path fill="#eba49d" d="M93.54 99.9L89.71 88l8.59-6.28 1.5-1.1h-1.86l-10.64-.03-3.9-11.88-3.9 11.88-12.5.03L77.1 88l-1.8 5.6-2.03 6.3 8.46-6.11 1.67-1.21 10.14 7.32z"></path></svg></svg> <!----></g></g> <g transform="translate(0,67)"><g data-gra="path-name" fill-rule="" class="tp-name iconsvg-namesvg"><g transform="scale(1)"><g><path d="M14.83 0.37C22.28 0.37 26.33-4.01 27.19-9.44L22.06-9.44C21.2-6.18 18.54-4.04 14.68-4.04 9.55-4.04 6.29-8.58 6.29-13.48 6.29-18.65 9.93-22.13 14.61-22.13 19.06-22.13 21.39-19.63 22.13-16.52L27.19-16.52C26.44-22.96 21.39-26.59 14.27-26.59 6.29-26.59 1.35-20.56 1.35-13.11 1.35-5.69 5.88 0.37 14.83 0.37ZM44.34-26.22L37.94-26.22 28.54 0 34.01 0 35.66-4.87 47.04-4.87 48.8 0 54.64 0ZM36.97-8.8L40.97-20.79 41.35-20.79 45.66-8.8ZM57.38 0L62.28 0 62.28-17.83 62.47-17.83 75.09 0 80.04 0 80.04-26.22 75.21-26.22 75.21-8.16 75.02-8.16 62.36-26.22 57.38-26.22ZM104.98-17.6C104.98-23.48 100.82-26.59 94.12-26.59 88.09-26.59 84.04-23.6 84.04-19.55 84.04-10 99.93-13.45 99.93-7.27 99.93-5.13 97.72-3.75 94.57-3.75 90.94-3.75 88.8-5.62 88.8-8.65L83.67-8.65C83.67-2.43 88.05 0.37 94.68 0.37 100.75 0.37 104.98-2.66 104.98-7.27 104.98-16.78 88.95-13.9 88.95-19.48 88.95-21.72 91.69-22.51 94.16-22.51 97.57-22.51 99.93-20.6 99.93-17.6ZM107.45-13.11C107.45-4.49 113.48 0.37 121.05 0.37 128.8 0.37 134.79-4.49 134.79-13.11 134.79-22.13 128.8-26.59 121.05-26.59 113.48-26.59 107.45-21.76 107.45-13.11ZM112.55-13.11C112.55-18.95 116.25-21.84 121.05-21.84 125.99-21.84 129.74-18.95 129.74-13.11 129.74-7.27 125.99-4.42 121.05-4.42 116.25-4.42 112.55-7.27 112.55-13.11ZM138.73 0L143.86 0 143.86-10.64 156.74-10.64 156.74-15.17 143.86-15.17 143.86-21.31 158.05-21.31 158.05-26.22 138.73-26.22ZM158.91-26.22L158.91-21.91 166.82-21.91 166.82 0 171.87 0 171.87-21.91 179.74-21.91 179.74-26.22Z" transform="translate(-1.350000023841858, 26.59000015258789)"></path></g> <!----> <!----> <!----> <!----> <!----> <!----> <!----></g></g> <!----></g></g><defs v-gra="od"></defs></svg>